<?xml version="1.0" standalone="no"?><!DOCTYPE svg PUBLIC "-//W3C//DTD SVG 1.1//EN" "http://www.w3.org/Graphics/SVG/1.1/DTD/svg11.dtd"><svg t="1636279938679" class="icon" viewBox="0 0 1024 1024" version="1.1" xmlns="http://www.w3.org/2000/svg" p-id="3009" xmlns:xlink="http://www.w3.org/1999/xlink" width="64" height="64"><defs><style type="text/css"></style></defs><path d="M788.081778 435.2c41.585778 0 75.292444 34.389333 75.292444 76.8v358.4c0 42.410667-33.706667 76.8-75.292444 76.8H235.918222c-41.585778 0-75.292444-34.389333-75.292444-76.8V512c0-42.410667 33.706667-76.8 75.292444-76.8h552.163556z m0-76.8H235.918222C152.746667 358.4 85.333333 427.178667 85.333333 512v358.4C85.333333 955.221333 152.746667 1024 235.918222 1024h552.163556C871.253333 1024 938.666667 955.221333 938.666667 870.4V512c0-84.821333-67.413333-153.6-150.584889-153.6zM512 76.8c97.024 0 175.672889 80.213333 175.672889 179.2v102.4H336.327111V256c0-98.986667 78.648889-179.2 175.672889-179.2zM512 0c-138.609778 0-250.993778 114.631111-250.993778 256v179.2h501.987556V256c0-141.368889-112.355556-256-250.993778-256z m0 806.4c-20.792889 0-37.660444-17.180444-37.660444-38.4v-153.6c0-21.219556 16.867556-38.4 37.660444-38.4 20.792889 0 37.660444 17.180444 37.660444 38.4V768c0 21.219556-16.867556 38.4-37.660444 38.4z" p-id="3010"></path></svg>